<svg height="297mm" viewBox="0 0 210 297" width="210mm" xmlns="http://www.w3.org/2000/svg" xmlns:xlink="http://www.w3.org/1999/xlink"><g id="a" fill="#f00" transform="matrix(.30287994 0 0 .30287994 102.6499 45.441468)"><path d="m30.805056 154.2087h96.005954" fill="#f00" stroke="#000" stroke-width=".264583"/><path d="m30.80506 154.2087c48.002972-83.143599 48.002972-83.143599 48.002972-83.143599" fill="#f00" stroke="#000" stroke-width=".264583"/><path d="m78.808032 71.065101c48.002978 83.143599 48.002978 83.143599 48.002978 83.143599" fill="#f00" stroke="#000" stroke-width=".264583"/></g><use height="100%" transform="translate(-18.114585 -31.375381)" width="100%" xlink:href="#a"/><use height="100%" transform="translate(-36.229167)" width="100%" xlink:href="#a"/><use height="100%" transform="matrix(-1 0 0 -1 234.92398 157.049524)" width="100%" xlink:href="#a"/><use height="100%" transform="matrix(-1 0 0 -1 253.03854 188.424952)" width="100%" xlink:href="#a"/><g id="b" fill="#f00" transform="matrix(.30287995 0 0 .30287995 120.76448 76.816852)"><path d="m30.805056 154.2087h96.005954" fill="#f00" stroke="#000" stroke-width=".264583"/><path d="m30.80506 154.2087c48.002972-83.143599 48.002972-83.143599 48.002972-83.143599" fill="#f00" stroke="#000" stroke-width=".264583"/><path d="m78.808032 71.065101c48.002978 83.143599 48.002978 83.143599 48.002978 83.143599" fill="#f00" stroke="#000" stroke-width=".264583"/></g><use height="100%" transform="matrix(-1 0 0 -1 289.2677 251.1757)" width="100%" xlink:href="#b"/><g id="c" fill="#f00" transform="matrix(.30287995 0 0 .30287995 138.87909 108.19222)"><path d="m30.805056 154.2087h96.005954" fill="#f00" stroke="#000" stroke-width=".264583"/><path d="m30.80506 154.2087c48.002972-83.143599 48.002972-83.143599 48.002972-83.143599" fill="#f00" stroke="#000" stroke-width=".264583"/><path d="m78.808032 71.065101c48.002978 83.143599 48.002978 83.143599 48.002978 83.143599" fill="#f00" stroke="#000" stroke-width=".264583"/></g><use height="100%" transform="matrix(-1 0 0 -1 325.4969 313.92644)" width="100%" xlink:href="#c"/><g id="d" fill="#f00" transform="matrix(.30287995 0 0 .30287995 156.99365 139.56759)"><path d="m30.805056 154.2087h96.005954" fill="#f00" stroke="#000" stroke-width=".264583"/><path d="m30.80506 154.2087c48.002972-83.143599 48.002972-83.143599 48.002972-83.143599" fill="#f00" stroke="#000" stroke-width=".264583"/><path d="m78.808032 71.065101c48.002978 83.143599 48.002978 83.143599 48.002978 83.143599" fill="#f00" stroke="#000" stroke-width=".264583"/></g><use height="100%" transform="matrix(-1 0 0 -1 271.15312 282.55104)" width="100%" xlink:href="#d"/><g id="e" fill="#f00" transform="matrix(.30287995 0 0 .30287995 48.306152 76.816842)"><path d="m30.805056 154.2087h96.005954" fill="#f00" stroke="#000" stroke-width=".264583"/><path d="m30.80506 154.2087c48.002972-83.143599 48.002972-83.143599 48.002972-83.143599" fill="#f00" stroke="#000" stroke-width=".264583"/><path d="m78.808032 71.065101c48.002978 83.143599 48.002978 83.143599 48.002978 83.143599" fill="#f00" stroke="#000" stroke-width=".264583"/></g><use height="100%" transform="matrix(-1 0 0 -1 144.351036 251.17572)" width="100%" xlink:href="#e"/><g id="f" fill="#f00" transform="matrix(.30287995 0 0 .30287995 30.191569 108.19222)"><path d="m30.805056 154.2087h96.005954" fill="#f00" stroke="#000" stroke-width=".264583"/><path d="m30.80506 154.2087c48.002972-83.143599 48.002972-83.143599 48.002972-83.143599" fill="#f00" stroke="#000" stroke-width=".264583"/><path d="m78.808032 71.065101c48.002978 83.143599 48.002978 83.143599 48.002978 83.143599" fill="#f00" stroke="#000" stroke-width=".264583"/></g><use height="100%" transform="matrix(-1 0 0 -1 108.121896 313.92648)" width="100%" xlink:href="#f"/><g fill="#f00" stroke="#000" stroke-width=".264583" transform="matrix(.30287995 0 0 .30287995 12.076991 139.56761)"><path d="m30.805056 154.2087h96.005954"/><path d="m30.80506 154.2087c48.002972-83.143599 48.002972-83.143599 48.002972-83.143599"/><path d="m78.808032 71.065101c48.002978 83.143599 48.002978 83.143599 48.002978 83.143599"/></g><g transform="scale(.26458333)"><path d="m359.78197 223.21295c2.01671-3.40954 14.07307-24.24913 26.79191-46.31021l23.12517-40.11104 25.61456 44.24382c14.08801 24.3341 25.98952 45.1737 26.4478 46.31021.65629 1.62759-10.4724 2.06639-52.40648 2.06639h-53.2397z" fill="none" stroke-width="6.87278"/><path d="m357.14221 228.40868c0-2.48846 52.53921-90.92493 53.4226-89.92343 1.07327 1.21676 46.63715 80.22613 50.26664 87.16412l1.79763 3.43628h-52.74343c-29.00889 0-52.74344-.30464-52.74344-.67697z" fill="#f00" stroke-width="6.34946"/><path d="m408.63271 336.4757c-14.06317-23.65283-51.44066-89.62211-51.01826-90.04452.32262-.32261 24.06926-.4056 52.77032-.18443l52.18374.40213-25.74543 44.68518c-14.15998 24.57686-26.12871 45.06847-26.59718 45.53693-.46846.46847-1.18539.29058-1.59319-.39529z" fill="#f00" stroke-width="6.34946"/><path d="m290.27958 343.24667c1.2179-1.88996 13.08822-22.33586 26.3785-45.43532 13.29027-23.09947 24.26293-42.14848 24.38368-42.33113.18348-.27752 29.80527 50.66947 47.87908 82.348l5.05196 8.85473h-52.95379-52.95379z" fill="#f00" stroke-width="6.34946"/><path d="m314.83412 411.1379-26.15925-45.36448 26.696-.41745c14.6828-.2296 38.33862-.2296 52.5685 0l25.8725.41745-25.81243 44.76766c-14.19684 24.62221-26.081 45.03623-26.40926 45.36448-.32825.32825-12.36848-19.81719-26.75606-44.76766z" fill="#f00" stroke-width="6.34946"/><path d="m431.47842 336.29731c21.08414-37.47102 45.70599-79.61541 46.54174-79.66393.54438-.0316 12.67493 20.21663 26.95677 44.99606l25.96699 45.05351h-52.65464-52.65464z" fill="#f00" stroke-width="6.34946"/><path d="m452.02466 411.57092c-14.43782-24.99702-25.99124-45.70847-25.67426-46.02545.31697-.31697 23.95692-.39536 52.53322-.17418l51.9569.40213-24.33195 41.99904c-13.38257 23.09947-25.20976 43.62996-26.28264 45.62332-1.84421 3.42646-3.38352 1.14354-28.20127-41.82486z" fill="#f00" stroke-width="6.34946"/><path d="m494.5936 464.96011c0-1.80507 51.02916-89.25964 52.0824-89.25964.61376 0 5.56064 7.73164 10.99308 17.18142 5.43243 9.44978 17.1297 29.72386 25.99392 45.05351l16.11677 27.87209h-52.59308c-28.9262 0-52.59309-.38132-52.59309-.84738z" fill="#f00" stroke-width="6.34946"/><path d="m519.6142 528.77485-26.14186-45.40413 26.52367-.41705c14.58802-.22938 38.52325-.22938 53.18939 0l26.66572.41705-26.25975 45.43532c-14.44286 24.98943-26.61425 45.42129-27.04753 45.40413-.43327-.0171-12.55161-20.46305-26.92964-45.43532z" fill="#f00" stroke-width="6.34946"/><path d="m565.96107 577.57562c36.95023-64.24817 48.64757-84.23784 49.28431-84.22226.41999.0103 3.94378 5.67184 7.83063 12.58125 3.88686 6.90942 15.7069 27.51042 26.26677 45.78l19.19975 33.21742h-53.40613-53.40612z" fill="#f00" stroke-width="6.34946"/><path d="m591.94101 653.96473c-12.39742-21.58836-24.29156-42.17241-26.43142-45.74233l-3.89065-6.49076h53.39596 53.39596l-25.24224 43.90808c-13.88323 24.14945-26.01728 44.7335-26.96455 45.74233-1.30363 1.38837-7.20171-7.70735-24.26306-37.41732z" fill="#f00" stroke-width="6.34946"/><path d="m646.82776 674.65724c8.86422-15.32965 20.56149-35.60373 25.99392-45.05351 5.43244-9.44978 10.33523-17.15635 10.89509-17.12569.87217.0478 27.90544 46.26024 46.56988 79.60968l5.84378 10.44161h-52.70972-52.70972z" fill="#f00" stroke-width="6.34946"/><path d="m223.85983 458.50728c2.32694-4.01511 14.19603-24.58897 26.37575-45.71969s22.58918-37.94789 23.13214-37.3715c1.39635 1.48236 51.7025 88.68091 51.7025 89.61894 0 .42485-23.72426.77246-52.72059.77246h-52.72059z" fill="#f00" stroke-width="6.34946"/><path d="m245.86754 528.80604-26.18299-45.43532 26.7298-.41705c14.70138-.22938 38.61894-.22938 53.15011 0l26.42032.41705-26.03851 45.36892c-14.32118 24.9529-26.45638 45.3988-26.96712 45.43532-.51074.0365-12.71096-20.37949-27.11161-45.36892z" fill="#f00" stroke-width="6.34946"/><path d="m155.13414 577.61953c2.32694-4.02187 14.19602-24.6296 26.37574-45.79496 12.17972-21.16535 22.48858-38.47572 22.90857-38.46749.41999.008 3.94377 5.66812 7.83063 12.57753 3.88686 6.90942 15.7069 27.51042 26.26677 45.78l19.19975 33.21742h-53.40613-53.40613z" fill="#f00" stroke-width="6.34946"/><path d="m177.53964 647.79865-26.1152-45.30339 26.49701-.41705c14.57335-.22938 38.37504-.22938 52.89265 0l26.39565.41705-25.42197 44.00347c-13.98208 24.2019-26.03194 44.58843-26.77746 45.30338-.77286.74118-12.58053-18.17273-27.47068-44.00346z" fill="#f00" stroke-width="6.34946"/><path d="m84.021212 701.20305c1.462231-3.80947 51.044738-88.74762 51.815158-88.76283.9326-.0184 51.78246 87.55994 51.78246 89.18455 0 .49751-23.424.90456-52.05335.90456-28.81672 0-51.826095-.59205-51.544268-1.32628z" fill="#f00" stroke-width="6.34946"/></g></svg>