<svg viewBox="0 0 16 10" id="icon-vk"><path fill-rule="evenodd" clip-rule="evenodd" d="M15.635.646c.11-.375 0-.644-.53-.644h-1.752a.75.75 0 0 0-.761.5s-.89 2.17-2.152 3.58c-.408.407-.594.537-.817.537-.11 0-.272-.125-.272-.5V.646c0-.445-.125-.644-.5-.644H6.1a.421.421 0 0 0-.445.402c0 .422.625.52.695 1.707V4.69c0 .565-.102.668-.325.668-.594 0-2.036-2.18-2.893-4.674C2.968.198 2.8.002 2.351.002H.6C.1.002 0 .237 0 .502c0 .464.594 2.763 2.763 5.804C4.211 8.379 6.25 9.504 8.102 9.504c1.112 0 1.25-.25 1.25-.68v-1.57c0-.5.105-.6.458-.6.26 0 .705.124 1.742 1.125 1.19 1.192 1.386 1.725 2.05 1.725h1.751c.5 0 .75-.25.607-.744-.144-.494-.724-1.205-1.477-2.052-.407-.482-1.02-1-1.205-1.261-.26-.334-.185-.483 0-.78.001.002 2.134-3.002 2.357-4.021z"></path></svg>